<svg xmlns="http://www.w3.org/2000/svg" width="200" height="124" fill="none"><path fill="url(#a)" d="M199.49 16.704c-1.424 1.134-2.365 3.13-4.739 2.937-.853 0-1.512.475-1.328 1.512.282 1.425-.378 2.084-1.521 2.462-1.416.387-1.89 1.53-1.978 2.76-.097 2.366-.282 4.643 1.706 6.446.949.853.756 1.802-.572 2.277-.95.281-1.328.853-1.706 1.9-.659 1.512-2.365 1.986-3.983 2.18-2.365.378-4.167 2.462-3.605 4.642.572 2.18 0 3.983-.949 5.786-.378.66-.572 3.218-1.987.474-.185-.377-.757-.474-1.135-.193-.571.378-.096.756.097 1.134.281.572.66 1.135 1.038 1.61 1.134 1.512 1.046 4.264-.282 5.591-.281.282-.571.572-.949.378-.097-.096-.282-.474-.282-.756.194-1.424-.571-2.365-1.802-3.13-1.047-.756-.668-1.899-.475-2.936.185-.572.281-1.047 0-1.513a.492.492 0 0 0-.756.097c-.378.475-1.231.756-.853 1.512.571 1.512.097 3.315 1.706 4.458.571.475.949 1.328.949 2.18-.193 1.513.097 2.366 1.891 2.84.668.185 1.327 2.084 1.046 3.034-.193.95-.281 1.424.475 1.89l.281.282c1.425 1.512-1.231 2.365-.571 3.79.853 2.18-.756 2.277-2.181 2.461-1.706.194-3.218.378-3.315 2.84-.096 1.231-.949 2.462-2.655 2.656-1.512.28-1.89 1.802-2.277 2.936-.66 2.18-2.084 3.218-3.79 4.546-1.328 1.134-3.13 2.374-3.315 4.836-.096 3.508.378 6.63 2.366 9.663.852 1.424 1.512 2.84 2.84 3.789.193.185.474.66.474.95.097 2.559 1.513 4.642 2.752 6.726 1.328 2.278.669 4.643.757 7.017.096.756-.66.668-1.231.756-2.278.756-3.887-1.046-5.777-1.512-.756-.194-.475-1.328-1.231-2.084-1.803-1.706-3.605-3.693-4.933-5.97-.281-.475 0-.853.097-1.231.194-2.084.572-4.168-1.802-5.399-.475-.281-.853-1.037-1.231-1.512-1.706-1.706-3.034-1.9-5.214-.756-.572.378-1.231.756-1.9 1.037-.668.378-1.23.475-1.802-.378-.475-.853-.853-1.987-1.987-2.084-1.803-.097-3.693-.378-5.399 0-1.987.378-3.983.756-5.97.853-.659 0-1.899-.378-1.802.475.184 1.231-1.803 2.365-.097 3.693.378.281 1.512.659.756 1.609-.571.756-1.328.281-1.89 0-1.231-.756-2.084-.95-3.13.378-1.135 1.424-3.034.853-3.693-.853-.756-1.987-2.656-2.374-3.887-.853-.474.66-.949.475-1.512.281-3.508-1.609-6.726-.659-9.856 1.135-.756.378-1.328.659-1.706 1.609-.659 1.424-2.277 1.987-3.79 2.277-1.705.378-2.84 1.609-3.983 2.752-2.277 2.365-1.134 5.214-.95 7.957 0 .66.757 1.328.098 1.987-.66.669-1.425 0-1.988-.096-3.886-.853-5.873-3.034-7.579-6.727-1.802-3.692-3.508-7.579-6.348-10.709-1.609-1.706-3.983-1.987-6.251-1.89-.757 0-.66.571-.757 1.046-.378 2.655-2.277 3.508-4.36 1.802-1.706-1.327-3.694-2.655-3.316-5.398.097-.66-.377-1.046-.756-1.512-1.609-1.89-3.13-3.79-4.739-5.592-1.328-1.715-5.504-2.858-7.394-2.093-.282 0-.572.281-.66.475-.281 2.18-1.899 1.705-3.218 1.512-2.277-.185-4.458-.475-6.63-.756-1.512-.194-2.84-.572-4.08-1.424a1473 1473 0 0 1-10.04-6.067c-.853-.475-1.706-.95-1.61-2.18.098-1.047-.852-.757-1.424-.757a70 70 0 0 0-6.348 0c-1.134 0-1.802-.475-1.706-1.61.379-3.604-2.18-5.398-4.36-7.394-.572-.571-1.232-1.046-1.61-1.609-.756-1.046-1.609-1.512-2.84-1.609-1.424-.096-2.462-.281-2.18-2.462.281-1.987-.194-4.07-1.134-6.066a11.6 11.6 0 0 0-.757-1.513c-.378-.66-.756-1.327 0-2.084.282-.281.378-.756.194-1.134-1.987-3.411-1.425-7.579-3.693-10.903-.281-.474-.193-1.424 0-2.18.281-1.61.571-3.218-1.134-4.361-.66-.572-.097-1.231.281-1.706 2.339-2.849 3.007-6.164 2.91-9.672 0-1.327.572-2.365 1.231-3.411 2.366-4.168 4.265-8.529 5.399-13.268.66-2.752 1.512-5.495 0-8.248-.281-.659.097-1.696.765-2.083.756-.466.853.387 1.134.861.66.756 1.61.941 2.559 1.135.66.193 1.512.096 1.705.95.282.852-.193 1.608-.949 1.986-.756.572-1.231 1.134-.95 2.084.194.572.572.572 1.047.572 1.134-.097 1.609-.853 1.899-1.803.66-1.706.097-3.605.193-5.398.088-1.996.748-1.803 1.979-1.328 6.735 2.084 13.364 4.07 20.284 5.302 9.76 1.802 19.616 2.936 29.472 4.264 7.298.95 14.693 1.328 22.078 1.61 1.522.096 2.937.193 4.458.28 2.462.097 4.933-.28 7.395-.378.378-.096.949-.193 1.134-.474 1.231-2.18 1.512-.282 1.803.474.571 1.425 2.461 2.84 3.692 2.084 1.513-.95 2.656-.193 3.605.66 1.231 1.23 2.559 1.609 4.265 1.23.475-.096.949-.193 1.424-.096 3.693.853 6.164-.756 7.676-3.983.659-1.328 5.311-.853 6.251.571.282.475.66 1.135.853 1.706.475 1.046 1.425 1.425 2.278.853 1.424-.853 1.802 0 2.083 1.046.66 1.803 1.61 3.412 2.656 4.924.756 1.046 1.609 1.706 3.218 1.61 2.084-.282 4.264-.194 6.445-.194 2.277 0 5.873 2.937 6.251 5.117.097.572-.193 1.046-.571 1.231a3.03 3.03 0 0 1-2.559 0c-.475-.194-.853-.66-1.231-1.046-.097 1.512-.378 2.752-1.134 3.983-.097.096-.193.193-.193.281.949 2.585-.282 4.484-1.328 6.656-.475.95.58 2.154-.941 2.444-.193 0-.686.282-.589.572 0 .378.334.22.809.316.949.194 1.073-.061 1.758-.571 1.565-1.17 2.278-3.412 4.836-2.462.572.193 1.047-.378 1.521-.756.853-.756 1.609-1.513 2.84-1.328.669.097.95-.281 1.047-.853 0-.756-.378-.853-.95-.853-2.277-.096-1.706-1.134-.756-2.18 1.609-1.512 3.315-2.752 5.689-2.655.571 0 1.231.193 1.134-.853 0-.194.281-.572.475-.572 2.936-.475 4.167-3.033 5.97-4.836 1.512-1.512 3.693-1.328 5.495-1.899 1.328-.475 2.752-.572 4.168-.95 2.655-.756 4.739-4.36 4.167-6.92-.378-1.802.379-3.41.669-5.117.096-.474.659-.474 1.134-.474h1.706c3.886 0 3.789 0 5.214 3.605.571 1.609 1.89 2.84 3.605 3.218 1.424.387 1.424 1.143.659 1.802"/><path fill="#fff" d="M103.79 109.67c-.602.27-1.268.445-1.915.569-1.706.378-2.84 1.609-3.983 2.752-2.277 2.365-1.134 5.214-.95 7.957 0 .66.757 1.328.097 1.988-.66.668-1.424 0-1.987-.097-3.886-.853-5.873-3.034-7.58-6.727-1.046-2.144-2.062-4.353-3.284-6.442zm65.084 0c.394.705.822 1.394 1.232 2.082 1.327 2.277.668 4.642.756 7.016.096.756-.66.668-1.232.756-2.277.756-3.886-1.046-5.776-1.512-.756-.194-.475-1.328-1.231-2.084-1.802-1.706-3.605-3.693-4.932-5.97a.9.9 0 0 1-.11-.288zm-6.973-14.966c.309 1.934.953 3.774 2.137 5.582.841 1.405 1.495 2.799 2.786 3.748h-9.847a4 4 0 0 0-.992-.706c-.475-.281-.854-1.037-1.232-1.512-1.706-1.705-3.033-1.9-5.214-.756-.571.378-1.23.756-1.898 1.038-.668.378-1.231.474-1.803-.378-.475-.853-.853-1.987-1.987-2.084-1.803-.097-3.693-.378-5.399 0-1.987.378-3.983.756-5.97.852-.66 0-1.899-.378-1.802.475.155 1.035-1.224 2.001-.654 3.071h-9.246a1.9 1.9 0 0 0-.618 0H79.048c-1.29-.494-2.753-.582-4.175-.521-.48 0-.615.231-.675.521h-7c-.59-.81-.934-1.785-.756-3.071.096-.659-.38-1.046-.757-1.512-1.36-1.597-2.656-3.2-3.996-4.747H161.9Zm7.441-14.967c-.242.49-.403 1.03-.564 1.504-.66 2.18-2.084 3.219-3.789 4.546-1.014.866-2.304 1.794-2.94 3.28H34.799c-1.938-1.168-3.89-2.349-5.875-3.561-.853-.475-1.706-.95-1.61-2.18.097-1.047-.853-.757-1.424-.757a70 70 0 0 0-6.348 0c-1.134 0-1.803-.475-1.706-1.609.046-.433.047-.839.014-1.223zm9.603-14.953c-.124.694-.092 1.096.55 1.492l.282.282c1.424 1.512-1.231 2.365-.572 3.79.853 2.18-.756 2.277-2.18 2.462-1.242.14-2.381.277-2.946 1.292H14.072q-.3-.268-.597-.537c-.572-.57-1.23-1.046-1.609-1.608-.756-1.046-1.609-1.513-2.84-1.61-1.424-.096-2.461-.28-2.18-2.461.144-1.017.088-2.06-.125-3.102zm-1.139-14.966a1 1 0 0 0-.112.07c-.572.378-.097.755.096 1.134a9.2 9.2 0 0 0 1.037 1.609c1.134 1.512 1.047 4.264-.281 5.592-.281.28-.571.57-.949.378-.097-.097-.282-.475-.282-.756.193-1.425-.571-2.365-1.802-3.13-1.046-.756-.668-1.9-.475-2.938.185-.57.281-1.046 0-1.511a.493.493 0 0 0-.757.096c-.378.475-1.23.756-.852 1.512.571 1.512.097 3.315 1.706 4.458.571.475.949 1.328.949 2.18a6 6 0 0 0-.049.636H4.52c-.002-.296.113-.603.435-.925.282-.282.378-.756.194-1.134-1.31-2.248-1.515-4.824-2.15-7.27h174.807Zm2.914 0c-.325.855-.601 2.766-1.893.263a.6.6 0 0 0-.256-.263zm10.858-14.966q-.222.137-.52.247c-.95.281-1.328.852-1.706 1.898-.66 1.512-2.365 1.987-3.983 2.18-2.365.379-4.168 2.463-3.605 4.643q.047.182.084.362H1.415l.041-.177c.282-1.609.571-3.219-1.134-4.361-.66-.572-.097-1.23.28-1.706a12.2 12.2 0 0 0 1.855-3.086h148.786c-.319 1.07-.89 2.088-1.414 3.174-.474.95.581 2.155-.94 2.445-.194 0-.686.28-.589.571 0 .378.334.22.809.316.949.194 1.073-.06 1.758-.57 1.565-1.17 2.278-3.412 4.836-2.463.572.193 1.046-.378 1.521-.756.853-.756 1.61-1.512 2.841-1.328.667.097.949-.281 1.046-.852 0-.24-.039-.412-.109-.537zm-50.646-14.463c.756 1.046 1.609 1.705 3.218 1.608 2.083-.281 4.264-.193 6.445-.193 2.277 0 5.873 2.937 6.251 5.117.097.571-.193 1.047-.571 1.231a3.03 3.03 0 0 1-2.559 0c-.475-.193-.853-.66-1.231-1.047-.049.762-.144 1.454-.324 2.11H3.518q.007-.471-.005-.948c0-1.328.572-2.365 1.231-3.412a60 60 0 0 0 2.532-4.965h133.318q.167.251.338.499m52.911-.5c-.344.24-.529.654-.42 1.264.281 1.425-.378 2.084-1.521 2.462-1.416.387-1.89 1.53-1.978 2.761-.04.97-.092 1.926-.005 2.84h-23.694q.021-.151.003-.37c0-.193.281-.57.474-.57 2.937-.475 4.169-3.034 5.971-4.837 1.512-1.512 3.693-1.328 5.495-1.899 1.328-.475 2.753-.571 4.168-.95a4.7 4.7 0 0 0 1.42-.7h10.087ZM36.295 4.925q1.746.377 3.514.693c9.76 1.803 19.616 2.936 29.472 4.264 7.298.95 14.693 1.328 22.079 1.61 1.52.096 2.937.193 4.458.28 2.461.097 4.932-.28 7.394-.377.378-.097.949-.194 1.134-.475 1.231-2.18 1.513-.282 1.803.475.571 1.424 2.461 2.84 3.692 2.083 1.512-.95 2.656-.193 3.606.66q.06.06.123.117H9.413q.406-1.314.73-2.667c.533-2.224 1.191-4.442.627-6.663h5.6c-.088.543-.48.998-1.013 1.264-.756.572-1.23 1.135-.95 2.084.194.572.572.572 1.046.572 1.135-.097 1.61-.853 1.9-1.803.263-.681.33-1.393.323-2.117zm90.516 6.364c.659-1.328 5.311-.853 6.252.571.281.475.659 1.135.852 1.706.127.28.288.51.472.689h-9.773c.885-.715 1.613-1.72 2.197-2.966m63.201-3.209c3.886 0 3.789 0 5.214 3.605a5.02 5.02 0 0 0 2.034 2.57h-10.674a4 4 0 0 0-.083-.583c-.378-1.803.378-3.412.668-5.117.097-.475.66-.475 1.135-.475z"/><path fill="url(#b)" d="M91.36 11.499v50.32H5.694a11.6 11.6 0 0 0-.756-1.513c-.378-.66-.756-1.327 0-2.084.281-.281.378-.756.193-1.134-1.987-3.411-1.424-7.579-3.693-10.903-.281-.474-.193-1.424 0-2.18.282-1.61.572-3.218-1.134-4.361-.66-.572-.097-1.231.282-1.706 2.356-2.849 3.024-6.164 2.927-9.672 0-1.327.572-2.365 1.231-3.411 2.366-4.168 4.265-8.529 5.399-13.268.66-2.752 1.512-5.495 0-8.248-.281-.659.097-1.696.765-2.083.756-.466.853.387 1.134.861.66.756 1.61.941 2.559 1.135.66.193 1.512.096 1.706.95.28.852-.194 1.608-.95 1.986-.756.572-1.231 1.134-.95 2.084.194.572.572.572 1.047.572 1.134-.097 1.609-.853 1.899-1.803.66-1.706.097-3.605.193-5.398.088-1.996.748-1.803 1.979-1.328 6.735 2.084 13.364 4.07 20.284 5.302 9.76 1.802 19.616 2.936 29.472 4.264 7.298.95 14.693 1.328 22.079 1.618"/><mask id="c" width="92" height="62" x="0" y="0" maskUnits="userSpaceOnUse" style="mask-type:luminance"><path fill="#fff" d="M91.36 11.499v50.32H5.694a11.6 11.6 0 0 0-.756-1.513c-.378-.66-.756-1.327 0-2.084.281-.281.378-.756.193-1.134-1.987-3.411-1.424-7.579-3.693-10.903-.281-.474-.193-1.424 0-2.18.282-1.61.572-3.218-1.134-4.361-.66-.572-.097-1.231.282-1.706 2.356-2.849 3.024-6.164 2.927-9.672 0-1.327.572-2.365 1.231-3.411 2.366-4.168 4.265-8.529 5.399-13.268.66-2.752 1.512-5.495 0-8.248-.281-.659.097-1.696.765-2.083.756-.466.853.387 1.134.861.66.756 1.61.941 2.559 1.135.66.193 1.512.096 1.706.95.28.852-.194 1.608-.95 1.986-.756.572-1.231 1.134-.95 2.084.194.572.572.572 1.047.572 1.134-.097 1.609-.853 1.899-1.803.66-1.706.097-3.605.193-5.398.088-1.996.748-1.803 1.979-1.328 6.735 2.084 13.364 4.07 20.284 5.302 9.76 1.802 19.616 2.936 29.472 4.264 7.298.95 14.693 1.328 22.079 1.618"/></mask><g fill="#fff" mask="url(#c)"><path d="m-.399-1.592.325.985h1.03L.12 0l.316.976-.835-.607-.826.607L-.91 0l-.835-.607h1.029l.316-.985Zm7.183 0 .316.985h1.03L7.294 0l.325.976-.835-.607-.836.607L6.265 0 5.43-.607h1.037zm7.174 0 .325.985h1.029L14.476 0l.317.976-.835-.607-.827.607.317-.976-.836-.607h1.029zm7.187 0 .317.985h1.028L21.664 0l.316.976-.835-.607-.835.607.316-.976-.826-.607h1.028zm7.183 0 .316.985h1.029L28.838 0l.316.976-.826-.607-.836.607L27.81 0l-.835-.607h1.028zm7.174 0 .316.985h1.029L36.02 0l.317.976L35.5.369l-.835.607.317-.976-.827-.607h1.029l.316-.985Zm7.182 0 .317.985h1.028L43.194 0l.317.976-.827-.607-.835.607.316-.976-.835-.607h1.029zm7.174 0 .317.985h1.037L50.377 0l.316.976-.835-.607-.835.607.325-.976-.835-.607h1.028zm7.187 0 .317.985h1.029L57.555 0l.326.976-.836-.607-.835.607.317-.976-.836-.607h1.03l.325-.985Zm7.175 0 .316.985h1.037L64.738 0l.317.976-.836-.607-.835.607.325-.976-.835-.607h1.029l.316-.985Zm7.182-.002.316.985h1.03l-.836.607.325.976-.835-.607-.835.607.316-.976-.835-.607h1.037zm7.174.002.325.985h1.029L79.094 0l.317.976-.835-.607-.836.607.326-.976-.835-.607h1.028zm7.182-.002.317.985h1.029l-.836.607.326.976-.836-.607-.835.607.317-.976-.836-.607h1.038zM3.195 2.635l.316.985h1.03l-.836.606.316.976-.826-.606-.835.606.316-.976-.835-.606H2.87zm7.174.002.316.984h1.038l-.836.607.317.976-.835-.607-.836.607.326-.976-.836-.607h1.03zm7.187-.002.317.985H18.9l-.835.606.317.976-.827-.606-.835.606.316-.976-.835-.606h1.029l.325-.985Zm7.174.002.317.984h1.037l-.835.607.316.976-.835-.607-.835.607.325-.976-.835-.607h1.028zm7.183-.002.316.985h1.029l-.835.606.325.976-.835-.606-.836.606.317-.976-.835-.606h1.037zm7.174.002.325.984h1.029l-.836.607.317.976-.835-.607-.836.607.326-.976-.836-.607h1.029zm7.183-.002.316.985h1.028l-.835.606.325.976-.835-.606-.835.606.316-.976-.835-.606h1.038l.316-.985Zm7.177 0 .325.985h1.029l-.835.606.316.976-.835-.606-.827.606.317-.976-.835-.606h1.028zm7.183.002.316.984h1.029l-.836.607.326.976-.836-.607-.835.607.317-.976-.827-.607h1.029zm7.174-.002.326.985h1.028l-.835.606.317.976-.836-.606-.826.606.316-.976-.835-.606h1.029zm7.183.002.316.984h1.03l-.827.607.316.976-.835-.607-.835.607.316-.976-.826-.607h1.028zm7.173-.002.326.985h1.029l-.836.606.317.976-.835-.606-.827.606.317-.976-.836-.606h1.03zm7.187.002.317.984h1.028l-.826.607.317.976-.836-.607-.835.607.325-.976-.835-.607h1.029zM-.398 6.865l.325.985h1.03l-.836.607.316.976-.835-.607-.826.607.316-.976-.835-.607h1.029zm7.183 0 .316.985H8.13l-.835.607.325.976-.835-.607-.836.607.317-.976-.835-.607h1.037zm7.174 0 .325.985h1.029l-.836.607.317.976-.835-.607-.827.607.317-.976-.836-.607h1.029zm7.186 0 .317.985h1.028l-.826.607.316.976-.835-.607-.835.607.316-.976-.826-.607h1.028zm7.183 0 .316.985h1.029l-.835.607.316.976-.826-.607-.836.607.317-.976-.835-.607h1.028zm7.174 0 .316.985h1.029l-.827.607.317.976-.836-.607-.835.607.317-.976-.827-.607h1.029zm7.183 0 .317.985h1.028l-.835.607.317.976-.827-.607-.835.607.316-.976-.835-.607h1.029zm7.174 0 .316.985h1.038l-.835.607.316.976-.835-.607-.835.607.325-.976-.835-.607h1.028zm7.186 0 .317.985h1.029l-.836.607.326.976-.836-.607-.835.607.317-.976-.836-.607h1.03l.325-.985Zm7.175 0 .316.985h1.037l-.835.607.317.976-.836-.607-.835.607.325-.976-.835-.607h1.029zm7.183 0 .316.985h1.03l-.836.607.325.976-.835-.607-.835.607.316-.976-.835-.607h1.037zm7.173 0 .325.985h1.029l-.836.607.317.976-.835-.607-.836.607.326-.976-.835-.607h1.028zm7.182 0 .317.985h1.029l-.836.607.326.976-.836-.607-.835.607.317-.976-.836-.607h1.038zM3.195 11.104l.316.976h1.03l-.836.606.316.976-.826-.598-.835.598.316-.976-.835-.607H2.87zm7.174-.002.316.976h1.038l-.836.606.317.976-.835-.598-.836.598.326-.976-.836-.606h1.03zm7.187 0 .317.976H18.9l-.835.606.317.976-.827-.598-.835.598.316-.976-.835-.606h1.029l.325-.976Zm7.174.002.317.976h1.037l-.835.606.316.976-.835-.598-.835.598.325-.976-.835-.607h1.028zm7.183-.002.316.976h1.029l-.835.606.325.976-.835-.598-.836.598.317-.976-.835-.606h1.037zm7.174.002.325.976h1.029l-.836.606.317.976-.835-.598-.836.598.326-.976-.836-.607h1.029zm7.183-.002.316.976h1.028l-.835.606.325.976-.835-.598-.835.598.316-.976-.835-.606h1.038l.316-.976Zm7.177.002.325.976h1.029l-.835.606.316.976-.835-.598-.827.598.317-.976-.835-.607h1.028zm7.183 0 .316.976h1.029l-.836.606.326.976-.836-.598-.835.598.317-.976-.827-.607h1.029zm7.174-.002.326.976h1.028l-.835.606.317.976-.836-.598-.826.598.316-.976-.835-.606h1.029zm7.182.002.316.976h1.03l-.827.606.316.976-.835-.598-.835.598.316-.976-.826-.607h1.028zm7.174-.002.326.976h1.029l-.836.606.317.976-.835-.598-.827.598.317-.976-.836-.606h1.03l.316-.976Zm7.187.002.317.976h1.028l-.826.606.317.976-.836-.598-.835.598.325-.976-.835-.607h1.029zM-.399 15.332l.325.976h1.03l-.836.607.316.985-.835-.607-.826.607.316-.985-.835-.607h1.029zm7.184 0 .316.976H8.13l-.835.607.325.985-.835-.607-.836.607.317-.985-.835-.607h1.037zm7.173 0 .325.976h1.029l-.836.607.317.985-.835-.607-.827.607.317-.985-.836-.607h1.029zm7.187 0 .317.976h1.028l-.826.607.316.985-.835-.607-.835.607.316-.985-.826-.607h1.028zm7.183 0 .316.976h1.029l-.835.607.316.985-.826-.607-.836.607.317-.985-.835-.607h1.028zm7.174 0 .316.976h1.029l-.827.607.317.985-.836-.607-.835.607.317-.985-.827-.607h1.029zm7.182 0 .317.976h1.028l-.835.607.317.985-.827-.607-.835.607.316-.985-.835-.607h1.029zm7.174-.002.317.976h1.037l-.835.607.316.985-.835-.607-.835.607.325-.985-.835-.607h1.028zm7.186.002.317.976h1.029l-.836.607.326.985-.836-.607-.835.607.317-.985-.836-.607h1.03l.325-.976Zm7.176 0 .316.976h1.037l-.835.607.317.985-.836-.607-.835.607.325-.985-.835-.607h1.029zm7.182-.002.316.976h1.03l-.836.607.325.985-.835-.607-.835.607.316-.985-.835-.607h1.037zm7.173.002.325.976h1.029l-.835.607.316.985-.835-.607-.835.607.325-.985-.835-.607h1.028zm7.183-.002.317.976h1.029l-.836.607.326.985-.836-.607-.835.607.317-.985-.836-.607h1.038zM3.196 19.564l.316.976h1.03l-.836.607.316.985-.826-.607-.835.607.316-.985-.835-.607H2.87zm7.174-.001.316.976h1.038l-.836.606.317.985-.835-.607-.836.607.326-.985-.836-.607h1.03zm7.187 0 .317.976h1.028l-.835.606.317.985-.827-.607-.835.607.316-.985-.835-.607h1.029zm7.174.001.316.976h1.038l-.835.607.316.985-.835-.607-.835.607.325-.985-.835-.607h1.029zm7.183-.001.316.976h1.029l-.835.606.325.985-.835-.607-.836.607.317-.985-.835-.607h1.037zm7.173.001.326.976h1.029l-.836.607.317.985-.836-.607-.835.607.325-.985-.835-.607h1.029zm7.183 0 .317.976h1.028l-.835.607.325.985-.835-.607-.835.607.316-.985-.835-.607h1.038zm7.179 0 .325.976h1.029l-.835.607.316.985-.835-.607-.827.607.317-.985-.836-.607h1.03zm7.181-.001.317.976h1.029l-.836.606.326.985-.836-.607-.835.607.317-.985-.827-.607h1.029zm7.175 0 .325.976h1.03l-.836.606.317.985-.836-.607-.826.607.316-.985-.835-.607h1.029zm7.182.001.316.976h1.03l-.827.607.316.985-.835-.607-.835.607.316-.985-.826-.607h1.028zm7.175-.001.325.976h1.029l-.836.606.317.985-.835-.607-.827.607.317-.985-.836-.607h1.03zm7.186.001.317.976h1.028l-.826.607.316.985-.835-.607-.835.607.325-.985-.835-.607h1.029zM-.398 23.791l.325.985h1.03l-.836.607.316.975-.835-.606-.826.606.316-.976-.835-.606h1.029zm7.183.002.316.985H8.13l-.835.606.325.976-.835-.606-.836.606.317-.976-.835-.606h1.037zm7.174 0 .325.985h1.029l-.836.606.317.976-.835-.606-.827.606.317-.976-.836-.606h1.029zm7.187 0 .317.985h1.028l-.826.606.316.976-.835-.606-.835.606.316-.976-.826-.606h1.029zm7.183 0 .316.985h1.029l-.835.606.316.976-.826-.606-.836.606.317-.976-.835-.606h1.028zm7.173-.002.317.985h1.029l-.827.607.317.975-.836-.606-.835.606.317-.976-.827-.606h1.029zm7.183.002.317.985h1.028l-.835.606.317.976-.827-.606-.835.606.316-.976-.835-.606h1.029zm7.174-.002.316.985h1.038l-.835.607.316.975-.835-.606-.835.606.325-.976-.835-.606h1.028zm7.187.002.317.985h1.029l-.836.606.326.976-.836-.606-.835.606.317-.976-.836-.606h1.03zm7.174 0 .316.985h1.037l-.835.606.317.976-.836-.606-.835.606.325-.976-.835-.606h1.029zm7.182 0 .316.985h1.03l-.836.606.325.976-.835-.606-.835.606.316-.976-.835-.606h1.037zm7.174 0 .325.985h1.029l-.836.606.317.976-.835-.606-.836.606.326-.976-.835-.606h1.028zm7.184 0 .316.985h1.029l-.836.606.326.976-.836-.606-.835.606.317-.976-.836-.606h1.038l.316-.985ZM3.195 28.02l.316.984h1.03l-.836.607.316.976-.826-.607-.835.607.316-.976-.835-.607H2.87l.325-.985Zm7.174 0 .316.984h1.038l-.836.607.317.976-.835-.607-.836.607.326-.976-.836-.607h1.03l.316-.985Zm7.187 0 .317.984H18.9l-.835.607.317.976-.827-.607-.835.607.316-.976-.835-.607h1.029l.325-.985Zm7.174.001.317.985h1.037l-.835.607.316.976-.835-.607-.835.607.325-.976-.835-.607h1.028zm7.183-.001.316.984h1.029l-.835.607.325.976-.835-.607-.836.607.317-.976-.835-.607h1.037l.317-.985Zm7.174 0 .325.984h1.029l-.836.607.317.976-.835-.607-.836.607.326-.976-.836-.607h1.029l.316-.985Zm7.183 0 .316.984h1.028l-.835.607.325.976-.835-.607-.835.607.316-.976-.835-.607h1.038l.316-.985Zm7.177 0 .325.984h1.029l-.835.607.316.976-.835-.607-.827.607.317-.976-.835-.607h1.028l.317-.985Zm7.183 0 .316.984h1.029l-.836.607.326.976-.836-.607-.835.607.317-.976-.827-.607h1.029l.316-.985Zm7.174 0 .326.984h1.028l-.835.607.317.976-.836-.607-.826.607.316-.976-.835-.607h1.029l.316-.985Zm7.182 0 .316.984h1.03l-.827.607.316.976-.835-.607-.835.607.316-.976-.826-.607h1.028l.317-.985Zm7.174 0 .326.984h1.029l-.836.607.317.976-.835-.607-.827.607.317-.976-.836-.607h1.03l.316-.985Zm7.187 0 .317.984h1.028l-.826.607.317.976-.836-.607-.835.607.325-.976-.835-.607h1.029l.316-.985ZM-.398 32.25l.325.985h1.03l-.836.606.316.976-.835-.606-.826.606.316-.976-.835-.606h1.029zm7.183 0 .316.985H8.13l-.835.606.325.976-.835-.606-.836.606.317-.976-.835-.606h1.037zm7.174 0 .325.985h1.029l-.836.606.317.976-.835-.606-.827.606.317-.976-.836-.606h1.029zm7.186-.002.317.985h1.028l-.826.607.316.975-.835-.606-.835.606.316-.975-.826-.607h1.028zm7.184 0 .316.985h1.029l-.835.607.316.975-.826-.606-.836.606.317-.975-.835-.607h1.028zm7.173.002.317.985h1.029l-.827.606.317.976-.836-.606-.835.606.317-.976-.827-.606h1.029zm7.183 0 .317.985h1.028l-.835.606.317.976-.827-.606-.835.606.316-.976-.835-.606h1.029zm7.174 0 .316.985h1.038l-.835.606.316.976-.835-.606-.835.606.325-.976-.835-.606h1.028zm7.186 0 .317.985h1.029l-.836.606.326.976-.836-.606-.835.606.317-.976-.836-.606h1.03l.325-.985Zm7.175 0 .316.985h1.037l-.835.606.317.976-.836-.606-.835.606.325-.976-.835-.606h1.029zm7.183 0 .316.985h1.03l-.836.606.325.976-.835-.606-.835.606.316-.976-.835-.606h1.037zm7.173-.002.325.985h1.029l-.836.607.317.975-.835-.606-.836.606.326-.975-.835-.607h1.028zm7.184.002.316.985h1.029l-.836.606.326.976-.836-.606-.835.606.317-.976-.836-.606h1.038l.316-.985ZM3.195 36.486l.316.976h1.03l-.836.607.316.976-.826-.598-.835.598.316-.976-.835-.607H2.87zm7.174 0 .316.976h1.038l-.836.607.317.976-.835-.598-.836.598.326-.976-.836-.607h1.03zm7.187 0 .317.976H18.9l-.835.607.317.976-.827-.598-.835.598.316-.976-.835-.607h1.029l.325-.976Zm7.174.002.317.976h1.037l-.835.607.316.976-.835-.598-.835.598.325-.976-.835-.607h1.028zm7.183 0 .316.976h1.029l-.835.607.325.976-.835-.598-.836.598.317-.976-.835-.607h1.037zm7.174 0 .325.976h1.029l-.836.607.317.976-.835-.598-.836.598.326-.976-.836-.607h1.029zm7.183 0 .316.976h1.028l-.835.607.325.976-.835-.598-.835.598.316-.976-.835-.607h1.038l.316-.976Zm7.177-.002.325.976h1.029l-.835.607.316.976-.835-.598-.827.598.317-.976-.835-.607h1.028zm7.183.002.316.976h1.029l-.836.607.326.976-.836-.598-.835.598.317-.976-.827-.607h1.029zm7.174 0 .326.976h1.028l-.835.607.317.976-.836-.598-.826.598.316-.976-.835-.607h1.029zm7.182 0 .316.976h1.03l-.827.607.316.976-.835-.598-.835.598.316-.976-.826-.607h1.028zm7.174 0 .326.976h1.029l-.836.607.317.976-.835-.598-.827.598.317-.976-.836-.607h1.03l.316-.976Zm7.187 0 .317.976h1.028l-.826.607.317.976-.836-.598-.835.598.325-.976-.835-.607h1.029zM-.398 40.717l.325.976h1.03L.12 42.3l.316.984-.835-.606-.826.606.316-.984-.835-.607h1.029zm7.184 0 .316.976h1.029l-.835.607.325.984-.835-.606-.836.606.317-.984-.835-.607h1.037zm7.173 0 .325.976h1.029l-.836.607.317.984-.835-.606-.827.606.317-.984-.836-.607h1.029zm7.186-.002.317.976h1.028l-.826.606.316.985-.835-.606-.835.606.316-.984-.826-.607h1.028zm7.184.002.316.976h1.029l-.835.607.316.984-.826-.606-.836.606.317-.984-.835-.607h1.028zm7.173 0 .317.976h1.029l-.827.607.317.984-.836-.606-.835.606.317-.984-.827-.607h1.029zm7.183 0 .317.976h1.028l-.835.607.317.984-.827-.606-.835.606.316-.984-.835-.607h1.029zm7.174-.002.316.976h1.038l-.835.606.316.985-.835-.606-.835.606.325-.984-.835-.607h1.028zm7.186.002.317.976h1.029l-.836.607.326.984-.836-.606-.835.606.317-.984-.836-.607h1.03l.325-.976Zm7.175 0 .316.976h1.037l-.835.607.317.984-.836-.606-.835.606.325-.984-.835-.607h1.029zm7.182 0 .316.976h1.03l-.836.607.325.984-.835-.606-.835.606.316-.984-.835-.607h1.037zm7.174 0 .325.976h1.029l-.836.607.317.984-.835-.606-.836.606.326-.984-.835-.607h1.028zm7.184 0 .316.976h1.029l-.836.607.326.984-.836-.606-.835.606.317-.984-.836-.607h1.038l.316-.976ZM3.195 44.945l.316.976h1.03l-.836.607.316.985-.826-.607-.835.607.316-.985-.835-.607H2.87zm7.174-.002.316.976h1.038l-.836.607.317.985-.835-.607-.836.607.326-.985-.836-.607h1.03zm7.187.002.317.976H18.9l-.835.607.317.985-.827-.607-.835.607.316-.985-.835-.607h1.029l.325-.976Zm7.174 0 .317.976h1.037l-.835.607.316.985-.835-.607-.835.607.325-.985-.835-.607h1.028zm7.183 0 .316.976h1.029l-.835.607.325.985-.835-.607-.836.607.317-.985-.835-.607h1.037zm7.174 0 .325.976h1.029l-.836.607.317.985-.835-.607-.836.607.326-.985-.836-.607h1.029zm7.183 0 .316.976h1.028l-.835.607.325.985-.835-.607-.835.607.316-.985-.835-.607h1.038l.316-.976Zm7.177 0 .325.976h1.029l-.835.607.316.985-.835-.607-.827.607.317-.985-.835-.607h1.028zm7.183-.002.316.976h1.029l-.836.607.326.985-.836-.607-.835.607.317-.985-.827-.607h1.029zm7.174.002.326.976h1.028l-.835.607.317.985-.836-.607-.826.607.316-.985-.835-.607h1.029zm7.182 0 .316.976h1.03l-.827.607.316.985-.835-.607-.835.607.316-.985-.826-.607h1.028zm7.174 0 .325.976h1.029l-.835.607.316.985-.835-.607-.827.607.317-.985-.836-.607h1.03zm7.187 0 .317.976h1.028l-.826.607.317.985-.836-.607-.835.607.325-.985-.835-.607h1.029zM-.398 49.174l.325.985h1.03l-.836.606.316.976-.835-.606-.826.606.316-.976-.835-.606h1.029zm7.183 0 .316.985H8.13l-.835.606.325.976-.835-.606-.836.606.317-.976-.835-.606h1.037zm7.174 0 .325.985h1.029l-.836.606.317.976-.835-.606-.827.606.317-.976-.836-.606h1.029zm7.187 0 .317.985h1.028l-.826.606.316.976-.835-.606-.835.606.316-.976-.826-.606h1.029zm7.183 0 .316.985h1.029l-.835.606.316.976-.826-.606-.836.606.317-.976-.835-.606h1.028zm7.173 0 .317.985h1.029l-.827.606.317.976-.836-.606-.835.606.317-.976-.827-.606h1.029zm7.183 0 .317.985h1.028l-.835.606.317.976-.827-.606-.835.606.316-.976-.835-.606h1.029zm7.174 0 .316.985h1.038l-.835.606.316.976-.835-.606-.835.606.325-.976-.835-.606h1.028zm7.187 0 .317.985h1.029l-.836.606.326.976-.836-.606-.835.606.317-.976-.836-.606h1.03zm7.174 0 .316.985h1.037l-.835.606.317.976-.836-.606-.835.606.325-.976-.835-.606h1.029zm7.183.002.316.984h1.03l-.836.607.325.976-.835-.607-.835.607.316-.976-.835-.607h1.037zm7.173-.002.325.985h1.029l-.836.606.317.976-.835-.606-.836.606.326-.976-.835-.606h1.028zm7.184 0 .316.985h1.029l-.836.606.326.976-.836-.606-.835.606.317-.976-.836-.606h1.038l.316-.985Zm-82.565 4.23.316.985h1.03l-.836.607.316.976-.826-.607-.835.607.316-.976-.835-.607H2.87zm7.175-.002.316.985h1.038l-.836.607.317.976-.835-.607-.836.607.326-.976-.836-.607h1.03zm7.186.002.317.985H18.9l-.835.607.317.976-.827-.607-.835.607.316-.976-.835-.607h1.029l.325-.985Zm7.174-.002.317.985h1.037l-.835.607.316.976-.835-.607-.835.607.325-.976-.835-.607h1.028zm7.183 0 .316.985h1.029l-.835.607.325.976-.835-.607-.836.607.317-.976-.835-.607h1.037zm7.174 0 .325.985h1.029l-.836.607.317.976-.835-.607-.836.607.326-.976-.836-.607h1.029zm7.183 0 .316.985h1.028l-.835.607.325.976-.835-.607-.835.607.316-.976-.835-.607h1.038l.316-.985Zm7.177.002.325.985h1.029l-.835.607.316.976-.835-.607-.827.607.317-.976-.835-.607h1.028zm7.183-.002.316.985h1.029l-.836.607.326.976-.836-.607-.835.607.317-.976-.827-.607h1.029zm7.174.002.326.985h1.028l-.835.607.317.976-.836-.607-.826.607.316-.976-.835-.607h1.029zm7.182-.002.316.985h1.03l-.827.607.316.976-.835-.607-.835.607.316-.976-.826-.607h1.028zm7.174 0 .326.985h1.029l-.836.607.317.976-.835-.607-.827.607.317-.976-.836-.607h1.03l.316-.985Zm7.187.002.317.985h1.028l-.826.607.317.976-.836-.607-.835.607.325-.976-.835-.607h1.029zM-.398 57.63l.325.986h1.03l-.836.606.316.976-.835-.606-.826.606.316-.976-.835-.606h1.029zm7.183 0 .316.986H8.13l-.835.606.325.976-.835-.606-.836.606.317-.976-.835-.606h1.037zm7.174 0 .325.986h1.029l-.836.606.317.976-.835-.606-.827.606.317-.976-.836-.606h1.029zm7.186 0 .317.986h1.028l-.826.606.316.976-.835-.606-.835.606.316-.976-.826-.606h1.028zm7.184 0 .316.986h1.029l-.835.606.316.976-.826-.606-.836.606.317-.976-.835-.606h1.028zm7.173.003.317.985h1.029l-.827.606.317.976-.836-.607-.835.607.317-.976-.827-.606h1.029zm7.183-.003.317.986h1.028l-.835.606.317.976-.827-.606-.835.606.316-.976-.835-.606h1.029zm7.174 0 .316.986h1.038l-.835.606.316.976-.835-.606-.835.606.325-.976-.835-.606h1.028zm7.186 0 .317.986h1.029l-.836.606.326.976-.836-.606-.835.606.317-.976-.836-.606h1.03l.325-.985Zm7.175 0 .316.986h1.037l-.835.606.317.976-.836-.606-.835.606.325-.976-.835-.606h1.029zm7.182 0 .316.986h1.03l-.836.606.325.976-.835-.606-.835.606.316-.976-.835-.606h1.037zm7.174.003.325.985h1.029l-.836.606.317.976-.835-.607-.836.607.326-.976-.835-.606h1.028zm7.184-.003.316.986h1.029l-.836.606.326.976-.836-.606-.835.606.317-.976-.836-.606h1.038l.316-.985Z"/></g><defs><radialGradient id="b" cx="0" cy="0" r="1" gradientTransform="translate(11.772 -34.283)scale(200.343)" gradientUnits="userSpaceOnUse"><stop offset=".041" stop-color="#0048CB"/><stop offset=".196" stop-color="#0042BE"/><stop offset=".485" stop-color="#00319B"/><stop offset=".874" stop-color="#001762"/><stop offset=".944" stop-color="#001257"/></radialGradient><linearGradient id="a" x1="11.763" x2="218.258" y1="-26.11" y2="130.706" gradientUnits="userSpaceOnUse"><stop offset=".341" stop-color="#FF090E"/><stop offset=".779" stop-color="#BE0C04"/><stop offset="1" stop-color="#A20D00"/></linearGradient></defs></svg>